# xmcd CD database file
#
# Track frame offsets:
#	150
#	18387
#	37914
#	61879
#	83694
#	99801
#	124978
#	142279
#	159103
#	176183
#	192984
#	210764
#	225403
#	235436
#	257706
#
# Disc length: 3674 seconds
#
# Revision: 0
# Processed by: cddbd v1.4PL0 Copyright (c) Steve Scherf et al.
# Submitted via: CDex 1.50Beta6
#
DISCID=bd0e580f
DTITLE=Paris Washboard - Love Nest
DYEAR=1996
DGENRE=Jazz
TTITLE0=When You and I Were Young, Maggie
TTITLE1=I Wish I Could Shimmy Like My Sister Kate
TTITLE2=Them There Eyes
TTITLE3=Am I Blue?
TTITLE4=My Gal Sal
TTITLE5=Paris Washboard Strut
TTITLE6=Viper Mad
TTITLE7=Nagasaki
TTITLE8=Washboard Wiggles
TTITLE9=I Believe In Miracles
TTITLE10=Moodus Blues
TTITLE11=The Love Nest
TTITLE12=Daintiness Rag
TTITLE13=I've Got A Feeling I'm Falling
TTITLE14=Buddy's Habit
EXTD=YEAR: 1996
EXTT0=
EXTT1=
EXTT2=
EXTT3=
EXTT4=
EXTT5=
EXTT6=
EXTT7=
EXTT8=
EXTT9=
EXTT10=
EXTT11=
EXTT12=
EXTT13=
EXTT14=
PLAYORDER=
